<svg width="18" height="12" viewBox="0 0 18 12" fill="none" xmlns="http://www.w3.org/2000/svg">
<path d="M5 12H1C0.716667 12 0.479333 11.904 0.288 11.712C0.0960001 11.5207 0 11.2833 0 11C0 10.7167 0.0960001 10.4793 0.288 10.288C0.479333 10.096 0.716667 10 1 10H5C5.28333 10 5.521 10.096 5.713 10.288C5.90433 10.4793 6 10.7167 6 11C6 11.2833 5.90433 11.5207 5.713 11.712C5.521 11.904 5.28333 12 5 12ZM17 2H1C0.716667 2 0.479333 1.90433 0.288 1.713C0.0960001 1.521 0 1.28333 0 1C0 0.716667 0.0960001 0.479 0.288 0.287C0.479333 0.0956668 0.716667 0 1 0H17C17.2833 0 17.5207 0.0956668 17.712 0.287C17.904 0.479 18 0.716667 18 1C18 1.28333 17.904 1.521 17.712 1.713C17.5207 1.90433 17.2833 2 17 2ZM11 7H1C0.716667 7 0.479333 6.904 0.288 6.712C0.0960001 6.52067 0 6.28333 0 6C0 5.71667 0.0960001 5.479 0.288 5.287C0.479333 5.09567 0.716667 5 1 5H11C11.2833 5 11.521 5.09567 11.713 5.287C11.9043 5.479 12 5.71667 12 6C12 6.28333 11.9043 6.52067 11.713 6.712C11.521 6.904 11.2833 7 11 7Z" fill="black"/>
</svg>
