<svg width="14" height="14" viewBox="0 0 14 14" fill="none" xmlns="http://www.w3.org/2000/svg">
<path d="M0.605212 11.6054C0.615264 12.0189 0.958565 12.3459 1.37199 12.3358C1.78542 12.3258 2.11243 11.9825 2.10237 11.569L1.89284 2.95187L12.2948 13.3538C12.5872 13.6462 13.0613 13.6463 13.3538 13.3538C13.6462 13.0614 13.6462 12.5873 13.3538 12.2949L2.95174 1.89284L11.569 2.10237C11.9825 2.11242 12.3258 1.78542 12.3358 1.37199C12.3459 0.958563 12.0189 0.615263 11.6054 0.605211L1.37892 0.356547C1.14607 0.350885 0.930609 0.425217 0.758103 0.553984C0.718615 0.580566 0.6811 0.611319 0.646177 0.646243C0.611185 0.681235 0.580381 0.718827 0.553764 0.758399C0.425133 0.930856 0.350889 1.1462 0.356547 1.37892L0.605212 11.6054Z" fill="#CDD1D6"/>
</svg>
