<svg width="14" height="14" viewBox="0 0 14 14" fill="none" xmlns="http://www.w3.org/2000/svg">
<path d="M0.397052 0.553788L0.46967 0.46967C0.735936 0.203403 1.1526 0.179197 1.44621 0.397052L1.53033 0.46967L7 5.939L12.4697 0.46967C12.7626 0.176777 13.2374 0.176777 13.5303 0.46967C13.8232 0.762563 13.8232 1.23744 13.5303 1.53033L8.061 7L13.5303 12.4697C13.7966 12.7359 13.8208 13.1526 13.6029 13.4462L13.5303 13.5303C13.2641 13.7966 12.8474 13.8208 12.5538 13.6029L12.4697 13.5303L7 8.061L1.53033 13.5303C1.23744 13.8232 0.762563 13.8232 0.46967 13.5303C0.176777 13.2374 0.176777 12.7626 0.46967 12.4697L5.939 7L0.46967 1.53033C0.203403 1.26406 0.179197 0.8474 0.397052 0.553788L0.46967 0.46967L0.397052 0.553788Z" fill="#9CA3AA"/>
</svg>
